<svg width="56" height="56" viewBox="0 0 56 56" fill="none" xmlns="http://www.w3.org/2000/svg">
<g clip-path="url(#clip0_1_2094)">
<path d="M44.0043 6.47517C39.4794 2.09084 33.3525 -0.242918 27.0574 0.0200435C15.1835 0.559971 5.62375 9.9588 4.88232 21.8217C4.88232 22.4085 4.88232 23.0131 4.88232 23.5999C5.05337 28.3056 6.8292 32.811 9.91483 36.3679L27.2636 55.2008C27.6599 55.631 28.3394 55.6307 28.7353 55.2L46.4227 35.9589C49.4361 32.3641 51.0969 27.8283 51.1174 23.1376C51.1351 16.8424 48.5628 10.8169 44.0043 6.47517ZM44.111 33.8072L28.7351 50.473C28.339 50.9023 27.6608 50.9021 27.2649 50.4727L12.2266 34.1629C9.64898 31.1878 8.1569 27.4262 7.9943 23.4932C7.9943 22.9834 7.9943 22.4737 7.9943 21.9639C8.61169 11.6817 16.8917 3.52468 27.1819 3.06089H27.9999C39.0417 3.06089 47.9956 12.0068 48.0054 23.0487C47.9996 26.979 46.6224 30.7839 44.111 33.8072Z" fill="#007878"/>
<path d="M29.7783 19.581V14.2462C29.7783 13.2641 28.9821 12.4679 28 12.4679C27.0179 12.4679 26.2217 13.2641 26.2217 14.2462V19.581H20.8869C19.9048 19.581 19.1086 20.3771 19.1086 21.3593C19.1086 22.3414 19.9048 23.1375 20.8869 23.1375H26.2217V28.4723C26.2217 29.4545 27.0179 30.2506 28 30.2506C28.9821 30.2506 29.7783 29.4545 29.7783 28.4723V23.1375H35.1131C36.0952 23.1375 36.8914 22.3414 36.8914 21.3593C36.8914 20.3771 36.0952 19.581 35.1131 19.581H29.7783Z" fill="#007878"/>
</g>
<defs>
<clipPath id="clip0_1_2094">
<rect width="56" height="56" fill="white"/>
</clipPath>
</defs>
</svg>
