<svg width="20" height="20" viewBox="0 0 20 20" fill="none" xmlns="http://www.w3.org/2000/svg">
<g id="box (1) 1" clip-path="url(#clip0_1_1758)">
<path id="Vector" d="M19.4635 4.25636C19.4635 4.00263 19.3102 3.77401 19.0755 3.67757L10.2378 0.0469287C10.0854 -0.0156429 9.91458 -0.0156429 9.76222 0.0469287L0.924443 3.67757C0.68976 3.77397 0.536499 4.00263 0.536499 4.25636V15.7436C0.536499 15.9974 0.689721 16.226 0.924443 16.3224L9.76222 19.9531C9.91294 20.015 10.0823 20.0163 10.237 19.953C10.2445 19.9505 9.90992 20.0878 19.0755 16.3224C19.3103 16.226 19.4635 15.9974 19.4635 15.7436V4.25636ZM9.99999 7.26316L6.7436 5.92541L13.781 2.85546L17.2552 4.28268L9.99999 7.26316ZM1.78793 5.24248L4.59744 6.39666V9.65288C4.59744 9.99844 4.8776 10.2786 5.22315 10.2786C5.5687 10.2786 5.84887 9.99844 5.84887 9.65288V6.91076L9.37427 8.35902V18.4408L1.78793 15.3242V5.24248ZM9.99999 1.30215L12.1691 2.19325L5.13172 5.26321L2.74481 4.28264L9.99999 1.30215ZM10.6257 8.35902L18.212 5.24248V15.3242L10.6257 18.4408V8.35902Z" fill="#3D4655"/>
</g>
<defs>
<clipPath id="clip0_1_1758">
<rect width="20" height="20" fill="white"/>
</clipPath>
</defs>
</svg>
