<svg width="20" height="20" viewBox="0 0 20 20" fill="none" xmlns="http://www.w3.org/2000/svg">
<g clip-path="url(#clip0_1_2102)">
<path d="M13.7498 6.32996L8.90985 11.2599L6.42984 8.76994L5.09985 10.1L9.00984 14L15.2899 7.90997L13.7498 6.32996Z" fill="#007878"/>
<path d="M9.99998 0C4.47717 0 0 4.47717 0 9.99998C0 15.5228 4.47717 20 9.99998 20C15.5228 20 20 15.5228 20 9.99998C20 4.47717 15.5228 0 9.99998 0ZM9.99998 18.19C5.47678 18.19 1.80998 14.5232 1.80998 9.99998C1.80998 5.47678 5.47678 1.80998 9.99998 1.80998C14.5209 1.81547 18.1844 5.47903 18.19 9.99998C18.19 14.5232 14.5232 18.19 9.99998 18.19Z" fill="#007878"/>
</g>
<defs>
<clipPath id="clip0_1_2102">
<rect width="20" height="20" fill="white"/>
</clipPath>
</defs>
</svg>
