<svg width="16" height="16" viewBox="0 0 16 16" fill="none" xmlns="http://www.w3.org/2000/svg">
<g clip-path="url(#clip0_1_2134)">
<path d="M15.3168 0.539231L15.2976 0.521666C14.9293 0.185278 14.4519 0 13.9534 0C13.3945 0 12.8579 0.236596 12.4811 0.649068L5.35655 8.44898C5.29161 8.52006 5.24235 8.60394 5.2119 8.69525L4.37416 11.2067C4.27731 11.497 4.32592 11.8181 4.50418 12.0656C4.68386 12.315 4.97333 12.4639 5.27858 12.4639H5.27863C5.41066 12.4639 5.53972 12.4368 5.66212 12.3832L8.0877 11.3221C8.17589 11.2835 8.255 11.2269 8.31989 11.1558L15.4445 3.35591C16.1858 2.54431 16.1287 1.28085 15.3168 0.539231ZM5.97925 10.7427L6.47083 9.26906L6.51229 9.22366L7.444 10.0746L7.40254 10.1201L5.97925 10.7427ZM14.4286 2.42801L8.3719 9.05888L7.44019 8.20789L13.4969 1.57697C13.6154 1.44727 13.7775 1.37582 13.9534 1.37582C14.1078 1.37582 14.2556 1.43324 14.3699 1.53771L14.3892 1.55528C14.6407 1.78499 14.6584 2.17651 14.4286 2.42801Z" fill="#212121" fill-opacity="0.75"/>
<path d="M13.9347 6.34657C13.5548 6.34657 13.2468 6.65458 13.2468 7.03449V12.8747C13.2468 13.8394 12.462 14.6242 11.4974 14.6242H3.15994C2.19526 14.6242 1.41049 13.8394 1.41049 12.8747V4.60501C1.41049 3.64038 2.19531 2.85556 3.15994 2.85556H9.19462C9.57454 2.85556 9.88254 2.54756 9.88254 2.16765C9.88254 1.78774 9.57454 1.47974 9.19462 1.47974H3.15994C1.43663 1.47974 0.034668 2.88175 0.034668 4.60501V12.8747C0.034668 14.5979 1.43668 15.9999 3.15994 15.9999H11.4973C13.2206 15.9999 14.6226 14.5979 14.6226 12.8747V7.03449C14.6227 6.65458 14.3147 6.34657 13.9347 6.34657Z" fill="#212121" fill-opacity="0.75"/>
</g>
<defs>
<clipPath id="clip0_1_2134">
<rect width="16" height="16" fill="white"/>
</clipPath>
</defs>
</svg>
