<svg width="22" height="22" viewBox="0 0 22 22" fill="none" xmlns="http://www.w3.org/2000/svg">
<g id="email (3) 1">
<g id="Group">
<path id="Vector" d="M19.2196 2.94238H2.78037C1.2473 2.94238 0 4.18969 0 5.72275V16.2769C0 17.81 1.2473 19.0573 2.78037 19.0573H19.2196C20.7527 19.0573 22 17.81 22 16.2769V5.72275C22 4.18969 20.7527 2.94238 19.2196 2.94238ZM18.7853 4.73586L11 10.7499L3.21475 4.73586H18.7853ZM19.2196 17.2639H2.78037C2.23623 17.2639 1.79348 16.8212 1.79348 16.277V5.90425L10.4518 12.5927C10.6132 12.7174 10.8067 12.7797 11 12.7797C11.1933 12.7797 11.3868 12.7174 11.5482 12.5927L20.2065 5.90425V16.2769C20.2065 16.8212 19.7638 17.2639 19.2196 17.2639Z" fill="#1D1D1B"/>
</g>
</g>
</svg>
