<svg width="20" height="21" viewBox="0 0 20 21" fill="none" xmlns="http://www.w3.org/2000/svg">
<g id="facebook (6)" clip-path="url(#clip0_1_1599)">
<path id="Vector" d="M11.3506 20H8.14155C7.60553 20 7.1695 19.5639 7.1695 19.0279V11.7896H5.29725C4.76123 11.7896 4.3252 11.3535 4.3252 10.8176V7.71598C4.3252 7.17996 4.76123 6.74393 5.29725 6.74393H7.1695V5.19076C7.1695 3.65073 7.65308 2.34049 8.5678 1.40192C9.48664 0.459073 10.7707 -0.0391846 12.2813 -0.0391846L14.7287 -0.0352095C15.2638 -0.0342922 15.699 0.40174 15.699 0.936843V3.81661C15.699 4.35263 15.2632 4.78867 14.7273 4.78867L13.0795 4.78928C12.5769 4.78928 12.449 4.89003 12.4216 4.92091C12.3765 4.97213 12.3228 5.11691 12.3228 5.51671V6.74378H14.6035C14.7751 6.74378 14.9415 6.78613 15.0844 6.86593C15.3928 7.03824 15.5845 7.36404 15.5845 7.71614L15.5833 10.8177C15.5833 11.3535 15.1473 11.7895 14.6112 11.7895H12.3228V19.0279C12.3228 19.5639 11.8867 20 11.3506 20ZM8.34428 18.8252H11.1479V11.2637C11.1479 10.9058 11.4392 10.6147 11.7969 10.6147H14.4085L14.4096 7.91871H11.7968C11.439 7.91871 11.1479 7.62761 11.1479 7.26971V5.51671C11.1479 5.05775 11.1945 4.53579 11.541 4.14348C11.9596 3.66923 12.6193 3.6145 13.0792 3.6145L14.5243 3.61389V1.13926L12.2803 1.1356C9.85281 1.1356 8.34428 2.68953 8.34428 5.19076V7.26971C8.34428 7.62746 8.05318 7.91871 7.69543 7.91871H5.49998V10.6147H7.69543C8.05318 10.6147 8.34428 10.9058 8.34428 11.2637V18.8252ZM14.7264 1.13957H14.7265H14.7264Z" fill="#212121"/>
</g>
<defs>
<clipPath id="clip0_1_1599">
<rect width="20" height="20.0391" fill="white"/>
</clipPath>
</defs>
</svg>
