<svg width="20" height="20" viewBox="0 0 20 20" fill="none" xmlns="http://www.w3.org/2000/svg">
<g clip-path="url(#clip0_1_1742)">
<path d="M18.3932 3.30803C16.2181 1.13346 12.6795 1.13346 10.505 3.30803L9.99989 3.81282L9.4951 3.30803C7.32053 1.13316 3.78169 1.13316 1.60712 3.30803C-0.5233 5.43845 -0.537134 8.81539 1.57504 11.1633C3.50148 13.3041 9.1831 17.929 9.42416 18.1247C9.58782 18.2578 9.78473 18.3225 9.98046 18.3225C9.98694 18.3225 9.99341 18.3225 9.99959 18.3222C10.2021 18.3316 10.4061 18.2622 10.575 18.1247C10.8161 17.929 16.4983 13.3041 18.4253 11.163C20.5372 8.8154 20.5234 5.43845 18.3932 3.30803ZM17.1126 9.98186C15.6106 11.6505 11.4819 15.0919 9.99959 16.3131C8.51731 15.0922 4.3895 11.6511 2.88779 9.98215C1.41433 8.34445 1.4005 6.01212 2.85571 4.55691C3.59891 3.814 4.57494 3.44225 5.55096 3.44225C6.52699 3.44225 7.50302 3.8137 8.24622 4.55691L9.35647 5.66715C9.48862 5.79931 9.65522 5.87819 9.83006 5.90586C10.1138 5.96679 10.4217 5.88761 10.6424 5.66745L11.7533 4.55691C13.24 3.07079 15.6583 3.07109 17.1441 4.55691C18.5993 6.01212 18.5854 8.34445 17.1126 9.98186Z" fill="#273142" fill-opacity="0.9"/>
</g>
<defs>
<clipPath id="clip0_1_1742">
<rect width="20" height="20" fill="white"/>
</clipPath>
</defs>
</svg>
