<svg width="20" height="20" viewBox="0 0 20 20" fill="none" xmlns="http://www.w3.org/2000/svg">
<g clip-path="url(#clip0_1_1754)">
<path d="M15.919 2.45508C14.3436 0.872921 12.2448 0.00157482 10.0092 0.00157482H9.99955C5.49767 -0.0905673 1.54813 3.87408 1.64082 8.37432C1.75866 11.552 4.81568 15.5877 7.1963 18.6881C7.89543 19.5233 8.91411 20 10.0085 20C11.1412 20 12.1929 19.4896 12.8939 18.5996C14.66 16.405 18.4734 11.1265 18.3583 8.37424C18.3583 6.13701 17.492 4.03489 15.919 2.45508ZM11.6666 17.6329C10.8593 18.6978 9.16097 18.6997 8.35333 17.6347C5.12531 13.5243 3.20314 10.1012 3.20314 8.37428C3.20314 4.61907 6.25199 1.56401 9.99955 1.56401H10.0092C13.7514 1.56401 16.796 4.61911 16.796 8.37428C16.796 10.12 14.9264 13.4946 11.6666 17.6329ZM10.0434 11.6803C8.21275 11.6803 6.72336 10.191 6.72336 8.36026C6.90573 3.95572 13.1818 3.95701 13.3635 8.3603C13.3635 10.191 11.8741 11.6803 10.0434 11.6803ZM10.0434 6.60257C9.07426 6.60257 8.28576 7.39107 8.28576 8.36026C8.38231 10.6921 11.7049 10.6914 11.8011 8.36026C11.8011 7.39107 11.0127 6.60257 10.0434 6.60257Z" fill="#3D4655"/>
</g>
<defs>
<clipPath id="clip0_1_1754">
<rect width="20" height="20" fill="white"/>
</clipPath>
</defs>
</svg>
