<svg width="24" height="24" viewBox="0 0 24 24" fill="none" xmlns="http://www.w3.org/2000/svg">
<path d="M12 14.069C13.1427 14.069 14.069 13.1427 14.069 12C14.069 10.8573 13.1427 9.93103 12 9.93103C10.8573 9.93103 9.93103 10.8573 9.93103 12C9.93103 13.1427 10.8573 14.069 12 14.069Z" fill="#212121"/>
<path d="M3.72412 14.069C4.86677 14.069 5.79308 13.1427 5.79308 12C5.79308 10.8573 4.86677 9.93103 3.72412 9.93103C2.58146 9.93103 1.65515 10.8573 1.65515 12C1.65515 13.1427 2.58146 14.069 3.72412 14.069Z" fill="#212121"/>
<path d="M20.2759 14.069C21.4185 14.069 22.3448 13.1427 22.3448 12C22.3448 10.8573 21.4185 9.93103 20.2759 9.93103C19.1332 9.93103 18.2069 10.8573 18.2069 12C18.2069 13.1427 19.1332 14.069 20.2759 14.069Z" fill="#212121"/>
<path d="M12 14.069C13.1427 14.069 14.069 13.1427 14.069 12C14.069 10.8573 13.1427 9.93103 12 9.93103C10.8573 9.93103 9.93103 10.8573 9.93103 12C9.93103 13.1427 10.8573 14.069 12 14.069Z" fill="#212121"/>
<path d="M3.72412 14.069C4.86677 14.069 5.79308 13.1427 5.79308 12C5.79308 10.8573 4.86677 9.93103 3.72412 9.93103C2.58146 9.93103 1.65515 10.8573 1.65515 12C1.65515 13.1427 2.58146 14.069 3.72412 14.069Z" fill="#212121"/>
<path d="M20.2759 14.069C21.4185 14.069 22.3448 13.1427 22.3448 12C22.3448 10.8573 21.4185 9.93103 20.2759 9.93103C19.1332 9.93103 18.2069 10.8573 18.2069 12C18.2069 13.1427 19.1332 14.069 20.2759 14.069Z" fill="#212121"/>
</svg>
