<svg width="20" height="20" viewBox="0 0 20 20" fill="none" xmlns="http://www.w3.org/2000/svg">
<path d="M13.0153 9.27363C14.295 8.34031 15.1284 6.82984 15.1284 5.1282C15.1284 2.30051 12.8279 0 10.0002 0C7.17246 0 4.87196 2.30051 4.87196 5.1282C4.87196 6.82984 5.70528 8.34031 6.98504 9.27363C3.80379 10.491 1.53864 13.5754 1.53864 17.1795C1.53864 18.7347 2.80391 20 4.35914 20H15.6412C17.1964 20 18.4617 18.7347 18.4617 17.1795C18.4617 13.5754 16.1965 10.491 13.0153 9.27363ZM6.41043 5.1282C6.41043 3.14883 8.02078 1.53848 10.0002 1.53848C11.9795 1.53848 13.5899 3.14883 13.5899 5.1282C13.5899 7.10758 11.9795 8.71797 10.0002 8.71797C8.02078 8.71797 6.41043 7.10758 6.41043 5.1282ZM15.6412 18.4615H4.35914C3.65223 18.4615 3.07711 17.8864 3.07711 17.1795C3.07711 13.362 6.18274 10.2564 10.0002 10.2564C13.8177 10.2564 16.9233 13.362 16.9233 17.1795C16.9232 17.8864 16.3481 18.4615 15.6412 18.4615Z" fill="#273142" fill-opacity="0.9"/>
</svg>
