<svg width="16" height="16" viewBox="0 0 16 16" fill="none" xmlns="http://www.w3.org/2000/svg">
<path d="M13.25 2H10.5V1.5C10.5 0.672906 9.82709 0 9 0H7C6.17291 0 5.5 0.672906 5.5 1.5V2H2.75C2.06075 2 1.5 2.56075 1.5 3.25V5C1.5 5.27612 1.72387 5.5 2 5.5H2.27325L2.70522 14.5713C2.74338 15.3725 3.4015 16 4.2035 16H11.7965C12.5985 16 13.2567 15.3725 13.2948 14.5713L13.7268 5.5H14C14.2761 5.5 14.5 5.27612 14.5 5V3.25C14.5 2.56075 13.9392 2 13.25 2ZM6.5 1.5C6.5 1.22431 6.72431 1 7 1H9C9.27569 1 9.5 1.22431 9.5 1.5V2H6.5V1.5ZM2.5 3.25C2.5 3.11216 2.61216 3 2.75 3H13.25C13.3878 3 13.5 3.11216 13.5 3.25V4.5C13.3459 4.5 3.13853 4.5 2.5 4.5V3.25ZM12.2959 14.5238C12.2832 14.7908 12.0638 15 11.7965 15H4.2035C3.93616 15 3.71678 14.7908 3.70409 14.5238L3.27437 5.5H12.7256L12.2959 14.5238Z" fill="#212121" fill-opacity="0.75"/>
</svg>
